<svg xmlns="http://www.w3.org/2000/svg" viewBox="0 0 256 256" width="256" height="256">
  <!-- 검격 자국 프레임. tools/make_slash_frames.gd가 만든다. 손으로 고치지 말 것 -->
  <path d="M105.2 24.3 L106.0 24.4 L106.8 24.6 L107.6 24.7 L108.3 24.9 L109.1 25.1 L109.8 25.4 L110.5 25.7 L111.2 26.0 L111.8 26.4 L112.4 26.8 L113.0 27.3 L113.5 27.8 L113.9 28.3 L114.4 28.9 L114.7 29.6 L115.1 30.2 L115.4 30.9 L115.7 31.7 L115.9 32.4 L116.1 33.2 L116.3 34.0 L116.5 34.8 L110.5 40.6 L109.7 40.4 L109.0 40.2 L108.3 40.0 L107.5 39.8 L106.9 39.6 L106.2 39.4 L105.6 39.1 L105.0 38.8 L104.4 38.5 L103.9 38.1 L103.4 37.7 L102.9 37.2 L102.5 36.7 L102.1 36.2 L101.8 35.6 L101.4 35.0 L101.1 34.3 L100.9 33.7 L100.6 33.0 L100.3 32.3 L100.1 31.5 L99.8 30.8 Z" fill="#2b2438"/>
  <path d="M102.5 27.5 L103.3 27.7 L104.1 27.8 L104.9 27.9 L105.6 28.1 L106.3 28.3 L107.1 28.6 L107.7 28.8 L108.4 29.1 L109.0 29.5 L109.6 29.9 L110.1 30.3 L110.6 30.8 L111.0 31.4 L111.5 32.0 L111.8 32.6 L112.1 33.2 L112.4 33.9 L112.7 34.7 L112.9 35.4 L113.1 36.2 L113.3 36.9 L113.5 37.7 L113.5 37.7 L112.7 37.5 L112.0 37.3 L111.2 37.1 L110.5 36.9 L109.8 36.6 L109.1 36.4 L108.5 36.1 L107.8 35.8 L107.3 35.4 L106.7 35.0 L106.2 34.6 L105.7 34.1 L105.3 33.6 L104.9 33.0 L104.5 32.4 L104.2 31.8 L103.9 31.2 L103.6 30.5 L103.3 29.8 L103.0 29.0 L102.8 28.3 L102.5 27.5 Z" fill="#cfe0f0"/>
  <path d="M118.3 36.6 L119.1 36.9 L119.9 37.1 L120.6 37.4 L121.4 37.7 L122.1 38.0 L122.8 38.4 L123.4 38.7 L124.0 39.1 L124.6 39.6 L125.1 40.1 L125.6 40.6 L126.1 41.2 L126.4 41.8 L126.8 42.5 L127.1 43.1 L127.3 43.9 L127.5 44.6 L127.7 45.4 L127.8 46.1 L128.0 46.9 L128.1 47.7 L128.2 48.6 L121.4 53.5 L120.7 53.2 L120.0 53.0 L119.3 52.7 L118.6 52.4 L117.9 52.1 L117.3 51.7 L116.7 51.4 L116.1 51.0 L115.6 50.6 L115.1 50.1 L114.7 49.6 L114.3 49.1 L114.0 48.6 L113.7 48.0 L113.4 47.4 L113.2 46.7 L113.0 46.1 L112.8 45.3 L112.6 44.6 L112.4 43.9 L112.3 43.1 L112.2 42.4 Z" fill="#2b2438"/>
  <path d="M115.2 39.5 L116.0 39.7 L116.8 40.0 L117.5 40.2 L118.2 40.5 L118.9 40.8 L119.6 41.1 L120.2 41.5 L120.8 41.9 L121.4 42.3 L121.9 42.8 L122.4 43.3 L122.8 43.9 L123.2 44.5 L123.5 45.1 L123.8 45.7 L124.0 46.4 L124.2 47.2 L124.4 47.9 L124.5 48.7 L124.6 49.5 L124.7 50.2 L124.8 51.0 L124.8 51.0 L124.0 50.7 L123.3 50.4 L122.6 50.1 L121.9 49.8 L121.2 49.5 L120.6 49.1 L120.0 48.8 L119.4 48.4 L118.9 47.9 L118.4 47.5 L118.0 47.0 L117.5 46.4 L117.2 45.9 L116.9 45.3 L116.6 44.6 L116.3 44.0 L116.1 43.3 L115.9 42.6 L115.7 41.8 L115.6 41.1 L115.4 40.3 L115.2 39.5 Z" fill="#cfe0f0"/>
  <path d="M129.7 50.6 L130.4 51.0 L131.1 51.3 L131.8 51.7 L132.5 52.1 L133.2 52.5 L133.9 52.9 L134.4 53.4 L135.0 53.9 L135.5 54.4 L136.0 55.0 L136.4 55.6 L136.7 56.2 L137.0 56.8 L137.3 57.5 L137.5 58.3 L137.6 59.0 L137.7 59.8 L137.8 60.5 L137.8 61.3 L137.9 62.1 L137.8 62.9 L137.8 63.8 L130.5 67.8 L129.8 67.4 L129.1 67.0 L128.5 66.6 L127.8 66.3 L127.2 65.9 L126.6 65.4 L126.1 65.0 L125.6 64.6 L125.1 64.1 L124.7 63.6 L124.4 63.0 L124.0 62.5 L123.8 61.9 L123.5 61.3 L123.4 60.6 L123.2 59.9 L123.1 59.2 L123.0 58.5 L122.9 57.8 L122.9 57.0 L122.8 56.3 L122.8 55.5 Z" fill="#2b2438"/>
  <path d="M126.2 53.1 L127.0 53.4 L127.7 53.7 L128.4 54.1 L129.1 54.4 L129.7 54.8 L130.3 55.2 L130.9 55.7 L131.5 56.2 L132.0 56.7 L132.4 57.2 L132.8 57.8 L133.1 58.4 L133.4 59.0 L133.7 59.7 L133.9 60.4 L134.0 61.1 L134.1 61.9 L134.2 62.6 L134.2 63.4 L134.2 64.2 L134.2 65.0 L134.1 65.8 L134.1 65.8 L133.5 65.4 L132.8 65.0 L132.1 64.6 L131.5 64.2 L130.8 63.7 L130.3 63.3 L129.7 62.9 L129.2 62.4 L128.7 61.9 L128.3 61.4 L127.9 60.8 L127.6 60.2 L127.3 59.6 L127.1 59.0 L126.9 58.3 L126.7 57.6 L126.6 56.9 L126.5 56.2 L126.4 55.4 L126.3 54.6 L126.3 53.9 L126.2 53.1 Z" fill="#cfe0f0"/>
</svg>
